<?xml version="1.0" encoding="UTF-8" standalone="no"?>
<!-- Created with Inkscape (http://www.inkscape.org/) -->

<svg
   width="166.12744mm"
   height="215.98056mm"
   viewBox="0 0 166.12744 215.98056"
   version="1.1"
   id="svg1"
   xml:space="preserve"
   inkscape:version="1.3 (0e150ed6c4, 2023-07-21)"
   sodipodi:docname="instructables_white.svg"
   xmlns:inkscape="http://www.inkscape.org/namespaces/inkscape"
   xmlns:sodipodi="http://sodipodi.sourceforge.net/DTD/sodipodi-0.dtd"
   xmlns="http://www.w3.org/2000/svg"
   xmlns:svg="http://www.w3.org/2000/svg"><sodipodi:namedview
     id="namedview1"
     pagecolor="#ffffff"
     bordercolor="#000000"
     borderopacity="0.25"
     inkscape:showpageshadow="2"
     inkscape:pageopacity="0.0"
     inkscape:pagecheckerboard="0"
     inkscape:deskcolor="#d1d1d1"
     inkscape:document-units="mm"
     inkscape:zoom="0.73139029"
     inkscape:cx="314.46958"
     inkscape:cy="406.75957"
     inkscape:window-width="1920"
     inkscape:window-height="1017"
     inkscape:window-x="-8"
     inkscape:window-y="-8"
     inkscape:window-maximized="1"
     inkscape:current-layer="layer1" /><defs
     id="defs1" /><g
     inkscape:label="Ebene 1"
     inkscape:groupmode="layer"
     id="layer1"
     transform="translate(-21.718806,-40.501392)"><g
       style="fill:none;fill-opacity:1;stroke:#ffffff;stroke-width:0.489713;stroke-dasharray:none;stroke-opacity:1"
       id="g1"
       transform="matrix(8.8194444,0,0,8.8194444,-0.92554086,42.669718)"><path
         d="M 9.417,0 A 1.98,1.98 0 0 0 8.968,0.037 C 8.066,0.237 7.731,1.149 7.347,1.99 7.243,2.215 7.155,2.097 6.789,2.965 5.641,2.828 4.23,2.859 3.383,2.761 c 0.14,0.485 0.832,0.198 1.295,0.204 0.759,0.006 1.545,0.201 2.111,0.204 0.034,0.21 0.214,0.442 0.25,0.649 A 4.41,4.41 0 0 1 6.927,5.823 C 6.744,6.472 5.677,7.012 5.427,7.868 5.324,8.221 5.44,8.523 5.29,8.958 5.18,9.096 4.965,9.128 4.815,9.229 c -1.057,1.192 -1.673,3.178 -1.974,4.903 0.725,0.338 1.347,0.018 1.703,0.271 0.216,0.061 0.092,-0.225 0.271,-0.204 0.137,0.022 0.131,0.183 0.271,0.204 -0.113,1.027 0.067,1.731 0.067,2.791 1.116,0.482 2.377,0.4 3.956,0.412 -0.019,0.204 0.386,0.96 0.057,1.457 0.488,0.496 -0.24,2.178 0.759,2.22 -0.332,0.488 -0.558,1.08 -0.546,1.908 -0.24,0.107 -0.04,-0.232 -0.204,-0.204 -1.69,-0.043 -2.684,-0.308 -4.494,-0.204 0.506,0.207 1.444,0.119 2.179,0.271 0.079,0.012 0.055,0.125 0.067,0.204 0.295,-0.14 1.103,-0.03 1.633,0 -0.238,0.125 0.332,0.247 0.341,0 0.457,0.07 0.83,0.585 1.225,0.68 1.307,0.314 2.045,-0.631 2.861,-1.223 0.128,0.268 0.756,0.016 1.158,0 -0.335,-0.198 -1.137,-0.134 -1.499,0 0.122,-0.963 -0.353,-1.328 -0.817,-1.703 0.19,-0.107 0.396,-0.195 0.545,-0.34 0.019,-1.342 -0.054,-1.796 -0.136,-2.996 0.725,-0.15 1.761,-0.244 2.657,-0.408 -0.317,0.969 -0.14,1.444 -0.271,2.723 0.167,0.083 0.398,0.101 0.612,0.138 -0.67,0.36 -1.057,1.895 -0.204,2.382 -0.076,0.174 -0.366,0.135 -0.613,0.138 0.01,0.356 0.85,-0.122 0.75,0.34 0.457,-0.368 3.18,-0.039 4.29,0.068 -0.119,-0.61 -1.453,-0.12 -2.044,-0.546 0.764,-0.487 0.776,-1.962 -0.068,-2.382 0.646,-0.43 0.269,-2.197 0.476,-3.2 0.618,-0.268 1.59,-0.18 2.111,-0.545 -0.015,-0.872 -0.182,-1.587 -0.34,-2.316 0.216,-0.149 0.749,-0.335 1.02,-0.204 0.15,-0.012 0.146,-0.174 0.137,-0.341 0.06,-0.165 0.2,0.152 0.408,0.067 0.01,-0.814 -0.368,-1.225 -0.75,-1.908 C 19.837,10.659 19.09,9.653 17.957,9.229 17.003,7.593 15.986,6.024 13.804,5.619 13.682,5.311 13.755,4.805 13.737,4.394 c 0.301,-0.265 0.564,-0.573 0.546,-1.158 0.828,-0.353 2.13,0.085 2.928,0 C 17.083,2.816 16.345,3.081 15.848,3.032 15.321,2.98 14.8,2.752 14.349,3.032 14.219,2.645 13.996,1.926 13.759,2.102 13.618,1.765 13.627,1.237 13.667,0.719 12.82,0.546 11.89,0.281 10.943,0.174 10.52,0.126 9.913,0.008 9.417,0 Z M 9.035,0.238 C 10.58,0.372 12.201,0.43 13.462,0.85 13.679,2.401 13.377,3.83 13.6,5.482 11.952,5.202 10.09,4.863 8.423,5.14 8.503,3.51 8.569,1.706 9.035,0.238 Z M 8.627,0.509 C 8.532,2.048 8.231,3.352 8.219,5.14 7.896,5.384 7.545,5.6 7.128,5.753 7.091,5.183 7.148,4.413 7.265,3.983 7.362,4.089 7.53,4.126 7.74,4.12 8.295,3.48 8.02,2.377 7.673,1.6 7.953,1.2 8.163,0.729 8.627,0.51 Z m 2.263,0.79 a 2.875,2.875 0 0 0 -0.831,0.097 c 0.332,0.006 0.72,-0.037 0.954,0.067 -0.475,0.207 -0.796,0.566 -0.75,1.295 0.728,1.011 1.971,-0.226 1.225,-1.225 0.475,-0.034 1.338,0.329 1.974,0.271 C 12.768,1.61 11.772,1.312 10.89,1.299 Z m 0.356,0.354 c 0.297,0.041 0.324,0.751 0.242,1.028 -0.32,0.387 -0.987,0.14 -1.09,-0.27 0.161,-0.086 -0.025,-0.522 0.27,-0.476 -0.082,0.515 0.165,0.701 0.546,0.75 A 0.971,0.971 0 0 0 11.418,2.209 C 11.36,1.975 11.135,1.905 11.01,1.734 a 0.415,0.415 0 0 1 0.172,-0.08 0.214,0.214 0 0 1 0.064,-10e-4 z M 7.673,2.075 C 7.792,2.493 7.887,3.248 7.74,3.845 6.701,3.821 7.018,2.265 7.673,2.075 Z m 3.133,0 c 0.225,0.003 0.48,-0.027 0.475,0.205 A 0.346,0.346 0 0 1 11.077,2.484 C 10.991,2.344 10.747,2.359 10.806,2.076 Z m 1.692,0.024 c -0.275,0.021 -0.54,0.247 -0.535,0.796 0.24,0.119 0.402,0.323 0.817,0.271 0.668,-0.565 0.177,-1.101 -0.282,-1.067 z m 0.01,0.043 c 0.3,0.021 0.516,0.12 0.476,0.476 C 12.764,2.523 12.71,2.261 12.509,2.142 Z M 13.871,2.28 C 14.264,2.712 14.285,3.998 13.666,4.187 13.642,3.62 13.606,2.746 13.871,2.28 Z m -1.494,0.069 c 0.026,0.002 0.05,0.021 0.065,0.067 -0.19,0.104 -0.01,0.409 0.07,0.479 -0.268,0.04 -0.302,-0.153 -0.342,-0.342 0.016,-0.059 0.127,-0.21 0.207,-0.204 z m 0.132,0.135 c 0.213,-0.03 0.304,0.06 0.27,0.27 -0.213,0.034 -0.3,-0.057 -0.27,-0.27 z M 9.102,3.3 C 9.023,3.313 9.044,3.425 9.035,3.504 10.562,3.687 11.808,4.154 13.121,4.049 12.908,3.699 12.411,3.876 12.101,3.845 11.156,3.751 10.208,3.392 9.239,3.37 9.16,3.38 9.118,3.355 9.102,3.3 Z m 2.093,1.902 c 0.932,0.044 2.03,0.469 2.542,0.618 0.14,0.04 0.323,-0.043 0.475,0 0.485,0.134 1.198,0.472 1.5,0.683 0.843,0.59 1.425,1.807 1.974,2.79 0.195,0.354 0.515,0.61 0.612,0.887 0.302,0.86 0.35,1.767 0.75,2.52 l 0.073,0.341 c 0.216,0.759 0.427,1.82 0.545,2.453 -3.028,0.43 -5.872,0.75 -8.31,1.02 C 9.334,16.186 7.189,16.341 5.363,16.174 5.062,13.87 5.763,11.579 5.635,9.226 5.647,9.034 5.857,9.041 5.906,8.886 5.732,8.876 5.556,8.873 5.565,8.681 5.763,6.576 7.972,4.714 10.263,5.344 10.501,5.308 10.568,5.229 10.809,5.208 A 2.844,2.844 0 0 1 11.196,5.202 Z M 9.894,9 A 1.609,1.609 0 0 0 9.58,9.022 C 9.355,9.37 9.425,9.684 9.443,10.18 10.558,11.372 11.313,9.046 9.894,9 Z m 5.063,0.017 c -1.353,0.032 -0.382,2.697 0.684,1.3 C 15.894,9.51 15.504,9.062 15.096,9.022 A 1.165,1.165 0 0 0 14.957,9.017 Z m -2.36,0.03 a 1.07,1.07 0 0 0 -0.704,0.247 c -0.085,0.417 0.089,0.944 0.342,1.225 0.518,0.042 0.91,-0.043 1.157,-0.272 0.094,-0.727 -0.3,-1.177 -0.796,-1.2 z M 5.29,9.157 C 5.65,10.25 5.245,11.679 5.223,12.834 4.657,12.743 4.154,12.588 3.52,12.564 3.85,11.168 4.184,9.774 5.29,9.156 Z m 4.885,0.067 a 0.264,0.264 0 0 1 0.152,0.07 c 0.162,0.161 -0.012,0.335 0,0.545 -0.277,0.067 -0.274,-0.006 -0.612,0 C 9.764,9.586 9.599,9.547 9.648,9.294 c 0.194,0.023 0.37,-0.088 0.527,-0.07 z m 2.3,0.003 c 0.598,-0.053 0.924,0.804 -0.104,0.75 -0.076,-0.22 -0.274,-0.318 -0.34,-0.546 a 0.794,0.794 0 0 1 0.443,-0.204 z m 2.579,0.013 c 0.269,-10e-4 0.52,0.163 0.52,0.532 -0.235,0.274 -0.472,0.558 -0.954,0.408 -0.03,-0.164 0.122,-0.15 0.067,-0.341 -0.134,0.003 -0.085,0.186 -0.27,0.137 -0.086,-0.46 0.29,-0.735 0.637,-0.736 z m 3.107,0.258 c 1.042,0.503 1.645,1.444 2.111,2.52 -0.496,0.042 -0.789,-0.119 -1.295,-0.067 -0.103,-0.576 -0.447,-0.911 -0.475,-1.566 0.18,-0.003 0.402,0.036 0.409,-0.138 C 18.861,9.985 18.56,9.777 18.365,10.043 18.355,9.803 18.17,9.739 18.161,9.498 Z M 4.879,9.702 c -0.088,0.29 -0.06,0.52 0.271,0.545 0.107,-0.192 -0.018,-0.28 0.07,-0.545 z m 5.723,0.204 c 0.003,0.207 -0.144,0.265 -0.204,0.408 -0.384,0.022 -0.714,-0.015 -0.75,-0.34 0.362,0.076 0.673,0.09 0.954,-0.068 z m 2.586,0 v 0.341 c -0.271,0.125 -1.21,0.28 -0.953,-0.204 0.246,0.308 0.767,0.034 0.953,-0.137 z m 2.316,0.204 c -0.027,0.387 -0.762,0.582 -0.954,0.204 0.412,0.11 0.707,0.013 0.954,-0.204 z m -6.332,1.365 c 0.128,0.503 -0.134,0.634 -0.204,1.091 0.926,0.067 1.98,-0.021 2.791,-0.003 0.043,-0.06 0.082,-0.122 0,-0.137 H 9.511 c 2.553,-0.527 4.21,-0.365 7.014,-0.271 0.076,0.213 -0.019,0.18 0.067,0.341 -1.615,0.326 -3.251,-0.402 -4.833,0.067 1.563,-0.052 3.196,0.164 4.903,0.271 0.036,-0.347 0.088,-0.832 0,-1.225 -0.247,-0.064 -0.07,0.293 -0.204,0.342 -1.865,-0.14 -4.677,-0.125 -7.082,0.204 C 9.282,12.067 9.31,11.859 9.31,11.68 c 1.46,-0.247 4.305,0.252 5.448,-0.205 -1.7,0.104 -3.724,-0.012 -5.586,0 z m 6.543,0.064 c -0.324,-0.01 -0.674,0.014 -0.89,0.003 0.31,0.302 1.21,0.015 1.633,0.204 -0.118,-0.15 -0.418,-0.196 -0.742,-0.207 z m 3.896,0.615 c 0.318,0.002 0.662,0.07 0.799,0.205 -0.46,-0.158 -0.911,0.167 -1.295,-0.137 a 1.51,1.51 0 0 1 0.496,-0.068 z m 0.15,0.325 c 0.23,-0.002 0.46,0.023 0.579,0.084 -0.208,0.143 -1.08,0.363 -1.158,0 0.12,-0.05 0.35,-0.081 0.58,-0.084 z m 0.965,0.244 c 0.244,-0.038 0.371,0.35 0.363,0.657 -0.252,0.134 -0.438,-0.308 -0.475,-0.613 a 0.304,0.304 0 0 1 0.112,-0.044 z M 3.45,12.767 c 0.408,0 1.34,0.067 1.703,0.341 C 4.565,13.014 3.77,13.13 3.45,12.768 Z m 16.89,0.137 c 0.213,0.268 0.25,0.482 0.271,0.817 -0.262,-0.055 -0.284,-0.71 -0.271,-0.817 z m -0.95,0.068 h 0.27 c 0.006,0.313 0.171,0.463 0.137,0.816 -0.387,-0.021 -0.332,-0.484 -0.408,-0.817 z m 0.609,0 c 0.04,0.213 0.32,0.542 0.137,0.749 -0.107,-0.146 -0.311,-0.548 -0.137,-0.75 z m -16.04,0.13 c 0.43,0.01 0.945,0.114 1.058,0.344 C 4.471,13.358 3.883,13.313 3.383,13.176 3.474,13.122 3.702,13.095 3.96,13.101 Z m -0.25,0.343 c 0.117,0 0.21,0.028 0.22,0.142 -0.15,0.17 -0.077,0.557 -0.342,0.612 0,-0.112 -0.189,-0.04 -0.204,-0.137 0.094,-0.176 0.25,-0.295 0.204,-0.612 A 1.524,1.524 0 0 1 3.71,13.445 Z M 3.316,13.45 C 3.298,13.703 3.209,13.885 3.045,13.995 3.024,13.703 3.039,13.444 3.316,13.45 Z m 1.225,0.134 C 4.657,13.721 4.638,14.135 4.474,14.196 4.331,14.12 4.2,13.547 4.541,13.584 Z m 0.408,0.07 c 0.015,0.125 0.177,0.45 0,0.545 -0.021,-0.119 -0.314,-0.524 0,-0.545 z m 14.574,2.041 c 0.226,0.025 0.106,0.393 0.137,0.613 -2.38,0.582 -4.564,0.713 -7.163,1.1 l -1.216,-0.01 C 9.489,17.53 7.11,17.563 5.425,17.194 5.391,16.954 5.324,16.75 5.358,16.445 c 2.282,-0.167 4.643,0.314 6.947,0.137 2.526,-0.195 4.951,-0.783 7.218,-0.887 z m -0.408,0.137 a 0.315,0.315 0 0 1 -0.204,0.067 c 0.006,0.199 0.024,0.384 0.27,0.342 0.01,-0.168 0.013,-0.33 -0.066,-0.409 z m -2.657,0.342 c -0.016,0.244 0.098,0.356 0.341,0.34 0.052,-0.06 0.073,-0.151 0.067,-0.27 -0.08,-0.082 -0.24,-0.08 -0.408,-0.07 z M 5.97,16.582 c -0.046,0.229 0.116,0.25 0.271,0.271 0.055,-0.06 0.077,-0.152 0.07,-0.271 z m 6.947,0.067 c -0.1,0.213 -0.003,0.277 0.137,0.408 0.174,-0.005 0.134,-0.228 0.134,-0.408 z m -4.113,0.075 a 0.252,0.252 0 0 0 -0.177,0.062 c -0.015,0.244 0.097,0.356 0.341,0.341 0.135,-0.185 0.008,-0.392 -0.164,-0.403 z m 8.812,0.196 c 0.009,0.521 -0.083,0.582 -0.07,1.158 -1.021,0.07 -1.472,-0.098 -2.383,-0.137 0.31,-0.911 1.55,-0.872 2.453,-1.021 z m -5.582,0.683 c 0.045,0.246 0.094,0.493 0.067,0.816 -0.869,0.028 -1.737,-0.222 -2.52,-0.066 -0.077,-0.214 -0.007,-0.156 0,-0.409 0.603,-0.402 1.913,-0.229 2.453,-0.341 z m 3.906,0.663 c 0.138,-0.006 0.327,0.029 0.451,0.153 H 16.187 C 15.617,18.402 15.71,18.277 15.94,18.266 Z m 1.382,0.004 c 0.133,-0.008 0.239,0.01 0.227,0.15 -0.077,0.09 -0.537,-0.007 -0.613,-0.138 0.095,0.03 0.254,-0.004 0.386,-0.012 z m -6.395,0.215 c 0.182,0.007 0.337,0.04 0.424,0.138 -0.247,-0.003 -0.536,0.037 -0.612,-0.137 a 2.667,2.667 0 0 1 0.188,0 z m 5.294,0.063 c 0.424,-0.002 0.86,0.043 1.26,0.28 -0.916,-0.205 -2.02,0.11 -2.452,-0.271 0.355,0.044 0.768,-0.006 1.192,-0.009 z m -6.076,0.176 c 0.68,-0.005 1.616,0.097 2.023,0.378 -0.972,-0.125 -1.743,0.021 -2.587,-0.341 a 3.96,3.96 0 0 1 0.564,-0.037 z m 5.515,0.171 c 0.691,0.006 1.352,0.044 1.892,0.207 -0.116,0.18 -0.01,0.585 -0.137,0.75 -0.637,-0.067 -1.828,0.128 -2.52,0 -0.037,-0.378 0.036,-0.644 0.067,-0.954 0.233,-0.003 0.467,-0.005 0.698,-0.003 z m -6.012,0.136 c 0.573,0.104 1.92,0.19 2.52,0.275 -0.089,0.493 0.167,0.944 0,1.295 -0.598,0.353 -1.527,0.378 -2.383,0.475 C 9.638,20.54 9.468,19.666 9.648,19.031 Z m 6.947,1.091 c 0.954,-0.042 1.407,0.766 1.292,1.43 -0.208,1.203 -2.502,1.486 -3.132,0.475 0.009,-0.716 0.003,-1.45 0.545,-1.633 0.064,0.49 -0.22,0.59 -0.204,0.887 0.058,1.21 2.282,1.377 2.453,0.27 0.13,-0.855 -0.622,-0.898 -0.954,-1.429 z m -0.756,0.24 a 0.082,0.082 0 0 1 0.104,0.061 c 0.004,0.005 0.009,0.005 0.012,0.01 0.036,0.07 0.043,0.146 0.058,0.223 0.01,0.045 -0.022,0.076 -0.061,0.088 a 0.921,0.921 0 0 1 -0.204,0.034 c -0.061,0.003 -0.12,-0.062 -0.076,-0.12 0.054,-0.076 0.088,-0.16 0.125,-0.252 a 0.072,0.072 0 0 1 0.042,-0.043 z m 1.03,0.306 c 0.265,0.006 0.552,0.454 0.475,1.02 -0.277,0.488 -1.554,0.528 -1.566,0.342 0.795,0.091 1.036,-0.372 1.362,-0.75 0.022,-0.274 -0.442,-0.417 -0.271,-0.612 z m -0.364,0.165 c 0.185,-0.006 0.367,0.25 0.431,0.447 -0.31,0.21 -0.5,0.546 -0.954,0.613 -0.17,-0.168 -0.448,-0.235 -0.408,-0.613 0.47,-0.04 0.418,-0.158 0.75,0.068 0.15,-0.144 -0.034,-0.195 0,-0.409 0.058,-0.072 0.12,-0.104 0.181,-0.106 z m -5.29,0.31 c 0.886,0.025 1.175,0.64 1.291,1.43 0.03,0.188 -0.253,0.063 -0.271,0.203 a 0.491,0.491 0 0 1 0.204,0.137 c -0.46,0.893 -3.169,1.45 -2.724,-0.408 0.07,1.176 1.78,0.951 2.248,0.272 0.226,-0.957 -0.438,-1.04 -0.749,-1.633 z m -0.476,0.546 c 0.088,0.09 0.255,0.102 0.275,0.262 a 0.313,0.313 0 0 1 -10e-4,0.079 c -0.131,0.128 -0.171,0.006 -0.342,0 0.037,-0.1 -0.079,-0.354 0.068,-0.341 z m 0.545,0 c 1.401,0.551 -0.159,2.05 -1.225,1.227 -0.094,-0.265 -0.31,-0.966 0.067,-1.09 0.12,0.198 0.161,0.475 0.137,0.817 0.299,0.472 1.384,0.304 1.43,-0.272 -0.28,-0.076 -0.132,-0.478 -0.41,-0.682 z m 0.067,0.475 c 0.094,0.089 0.067,0.296 0.07,0.479 -0.332,0.042 -0.71,0.237 -0.887,-0.138 0.418,0.03 0.491,-0.28 0.817,-0.34 z m 8.503,0.532 a 0.734,0.734 0 0 0 -0.33,0.084 c 0.392,0.17 0.539,-0.069 0.33,-0.084 z"
         id="path1"
         style="fill:none;fill-opacity:1;stroke:#ffffff;stroke-width:0.489713;stroke-dasharray:none;stroke-opacity:1" /></g></g></svg>
