<?xml version="1.0" encoding="UTF-8" standalone="no"?>
<!-- Created with Inkscape (http://www.inkscape.org/) -->

<svg
   width="118.53333mm"
   height="118.53334mm"
   viewBox="0 0 118.53333 118.53334"
   version="1.1"
   id="svg1"
   xml:space="preserve"
   sodipodi:docname="linkedin_white.svg"
   inkscape:version="1.3 (0e150ed6c4, 2023-07-21)"
   xmlns:inkscape="http://www.inkscape.org/namespaces/inkscape"
   xmlns:sodipodi="http://sodipodi.sourceforge.net/DTD/sodipodi-0.dtd"
   xmlns="http://www.w3.org/2000/svg"
   xmlns:svg="http://www.w3.org/2000/svg"><sodipodi:namedview
     id="namedview1"
     pagecolor="#ffffff"
     bordercolor="#000000"
     borderopacity="0.25"
     inkscape:showpageshadow="2"
     inkscape:pageopacity="0.0"
     inkscape:pagecheckerboard="0"
     inkscape:deskcolor="#d1d1d1"
     inkscape:document-units="mm"
     inkscape:zoom="0.73139029"
     inkscape:cx="224.23049"
     inkscape:cy="223.54686"
     inkscape:window-width="1920"
     inkscape:window-height="1017"
     inkscape:window-x="-8"
     inkscape:window-y="-8"
     inkscape:window-maximized="1"
     inkscape:current-layer="layer1" /><defs
     id="defs1" /><g
     inkscape:label="Ebene 1"
     inkscape:groupmode="layer"
     id="layer1"
     transform="translate(-39.352961,-84.402873)"><path
       d="M 149.41962,84.402873 H 47.793169 c -4.656666,0 -8.440208,3.836458 -8.440208,8.546045 V 194.39017 c 0,4.70958 3.783542,8.54604 8.440208,8.54604 H 149.41962 c 4.65667,0 8.46667,-3.83646 8.46667,-8.54604 V 92.948918 c 0,-4.709587 -3.81,-8.546045 -8.46667,-8.546045 z M 75.177544,186.00287 H 57.609211 v -56.56791 h 17.594792 v 56.56791 z m -8.784166,-64.29375 c -5.635625,0 -10.186459,-4.57729 -10.186459,-10.18645 0,-5.60917 4.550834,-10.18646 10.186459,-10.18646 5.609166,0 10.186458,4.57729 10.186458,10.18646 0,5.63562 -4.550833,10.18645 -10.186458,10.18645 z m 74.638952,64.29375 H 123.464 v -27.51666 c 0,-6.56167 -0.13229,-15.00188 -9.12813,-15.00188 -9.15458,0 -10.55687,7.14375 -10.55687,14.52563 v 27.99291 H 86.210669 v -56.56791 h 16.853951 v 7.72583 h 0.23813 c 2.35479,-4.445 8.09625,-9.12812 16.64229,-9.12812 17.78,0 21.08729,11.72104 21.08729,26.96104 z"
       id="path1"
       style="stroke-width:0.264583;fill:#ffffff;fill-opacity:1" /></g></svg>
